<svg width="26" height="21" viewBox="0 0 26 21" fill="none" xmlns="http://www.w3.org/2000/svg">
<path d="M0.542739 2.47765C4.11114 5.49969 10.3726 10.8164 12.2129 12.4741C12.4599 12.6979 12.7249 12.8116 13 12.8116C13.2745 12.8116 13.539 12.6989 13.7855 12.4763C15.6274 10.8169 21.8888 5.49969 25.4573 2.47765C25.6795 2.28986 25.7133 1.95978 25.5335 1.7302C25.1177 1.19969 24.4977 0.895508 23.8333 0.895508H2.16667C1.5023 0.895508 0.882313 1.19969 0.466567 1.73025C0.2867 1.95978 0.320571 2.28986 0.542739 2.47765Z" fill="white"/>
<path d="M25.6858 4.11539C25.4938 4.02602 25.2679 4.0572 25.1082 4.1937C21.1509 7.54841 16.1003 11.8485 14.5113 13.2803C13.6194 14.0854 12.3816 14.0854 11.4876 13.2793C9.79388 11.7532 4.12222 6.93162 0.89182 4.19365C0.730996 4.05715 0.504613 4.02704 0.314184 4.11534C0.122738 4.20426 0 4.39576 0 4.6068V18.2289C0 19.4239 0.971699 20.3956 2.16668 20.3956H23.8334C25.0283 20.3956 26 19.4239 26 18.2289V4.6068C26 4.39576 25.8773 4.20375 25.6858 4.11539Z" fill="white"/>
</svg>
