<svg width="50" height="52" viewBox="0 0 50 52" fill="none" xmlns="http://www.w3.org/2000/svg">
<g filter="url(#filter0_d)">
<path d="M29.2109 22.88C29.2109 25.2987 27.3257 27.2594 25 27.2594C22.6743 27.2594 20.7891 25.2987 20.7891 22.88C20.7891 20.4613 22.6743 18.5006 25 18.5006C27.3257 18.5006 29.2109 20.4613 29.2109 22.88Z" fill="white"/>
<path d="M34.848 15.1316C34.6456 14.5611 34.3227 14.0447 33.903 13.6209C33.4955 13.1845 32.9994 12.8487 32.4505 12.6381C32.0054 12.4583 31.3367 12.2443 30.105 12.186C28.7726 12.1228 28.3732 12.1092 25.0001 12.1092C21.6267 12.1092 21.2273 12.1225 19.8952 12.1857C18.6636 12.2443 17.9945 12.4583 17.5497 12.6381C17.0009 12.8487 16.5044 13.1845 16.0972 13.6209C15.6776 14.0447 15.3546 14.5608 15.1519 15.1316C14.979 15.5945 14.7732 16.2903 14.7172 17.5712C14.6564 18.9565 14.6433 19.372 14.6433 22.8803C14.6433 26.3883 14.6564 26.8037 14.7172 28.1894C14.7732 29.4703 14.979 30.1658 15.1519 30.6287C15.3546 31.1995 15.6772 31.7155 16.0969 32.1393C16.5044 32.5758 17.0005 32.9116 17.5494 33.1221C17.9945 33.3023 18.6636 33.5163 19.8952 33.5746C21.2273 33.6378 21.6264 33.651 24.9998 33.651C28.3735 33.651 28.773 33.6378 30.1047 33.5746C31.3363 33.5163 32.0054 33.3023 32.4505 33.1221C33.5522 32.6801 34.423 31.7745 34.848 30.6287C35.0209 30.1658 35.2267 29.4703 35.2831 28.1894C35.3438 26.8037 35.3566 26.3883 35.3566 22.8803C35.3566 19.372 35.3438 18.9565 35.2831 17.5712C35.227 16.2903 35.0212 15.5945 34.848 15.1316ZM25.0001 29.6264C21.4173 29.6264 18.5128 26.6061 18.5128 22.88C18.5128 19.1538 21.4173 16.1335 25.0001 16.1335C28.5826 16.1335 31.4871 19.1538 31.4871 22.88C31.4871 26.6061 28.5826 29.6264 25.0001 29.6264ZM31.7435 17.4434C30.9063 17.4434 30.2275 16.7375 30.2275 15.8668C30.2275 14.9961 30.9063 14.2902 31.7435 14.2902C32.5807 14.2902 33.2595 14.9961 33.2595 15.8668C33.2592 16.7375 32.5807 17.4434 31.7435 17.4434Z" fill="white"/>
<path d="M25 0C12.8516 0 3 10.2457 3 22.88C3 35.5143 12.8516 45.76 25 45.76C37.1484 45.76 47 35.5143 47 22.88C47 10.2457 37.1484 0 25 0ZM37.5566 28.2966C37.4955 29.6952 37.2817 30.65 36.9695 31.4858C36.3132 33.2506 34.9718 34.6457 33.2748 35.3283C32.4715 35.6529 31.5531 35.875 30.2086 35.9389C28.8615 36.0028 28.4311 36.0181 25.0003 36.0181C21.5692 36.0181 21.1392 36.0028 19.7917 35.9389C18.4473 35.875 17.5288 35.6529 16.7255 35.3283C15.8822 34.9983 15.1189 34.4813 14.4878 33.8127C13.8452 33.1567 13.3481 32.3625 13.0309 31.4858C12.7187 30.6504 12.5048 29.6952 12.4437 28.297C12.3816 26.8956 12.3672 26.448 12.3672 22.88C12.3672 19.312 12.3816 18.8644 12.4434 17.4634C12.5045 16.0648 12.718 15.11 13.0302 14.2742C13.3474 13.3975 13.8449 12.6033 14.4878 11.9473C15.1185 11.2787 15.8822 10.7617 16.7252 10.4317C17.5288 10.1071 18.4469 9.88501 19.7917 9.82113C21.1389 9.75724 21.5692 9.74187 25 9.74187C28.4308 9.74187 28.8611 9.75724 30.2083 9.82147C31.5531 9.88501 32.4712 10.1071 33.2748 10.4314C34.1178 10.7613 34.8815 11.2787 35.5126 11.9473C36.1551 12.6036 36.6526 13.3975 36.9695 14.2742C37.282 15.11 37.4955 16.0648 37.5569 17.4634C37.6184 18.8644 37.6328 19.312 37.6328 22.88C37.6328 26.448 37.6184 26.8956 37.5566 28.2966Z" fill="white"/>
</g>
<defs>
<filter id="filter0_d" x="0" y="0" width="50" height="51.76" filterUnits="userSpaceOnUse" color-interpolation-filters="sRGB">
<feFlood flood-opacity="0" result="BackgroundImageFix"/>
<feColorMatrix in="SourceAlpha" type="matrix" values="0 0 0 0 0 0 0 0 0 0 0 0 0 0 0 0 0 0 127 0"/>
<feOffset dy="3"/>
<feGaussianBlur stdDeviation="1.5"/>
<feColorMatrix type="matrix" values="0 0 0 0 0 0 0 0 0 0 0 0 0 0 0 0 0 0 0.25 0"/>
<feBlend mode="normal" in2="BackgroundImageFix" result="effect1_dropShadow"/>
<feBlend mode="normal" in="SourceGraphic" in2="effect1_dropShadow" result="shape"/>
</filter>
</defs>
</svg>
