<svg width="26" height="36" viewBox="0 0 26 36" fill="none" xmlns="http://www.w3.org/2000/svg">
<path d="M13 0C5.83176 0 0 5.83176 0 12.9999C0 21.8959 11.6337 34.9556 12.129 35.5072C12.5943 36.0254 13.4066 36.0245 13.871 35.5072C14.3663 34.9556 26 21.8959 26 12.9999C25.9999 5.83176 20.1682 0 13 0ZM13 19.5406C9.39348 19.5406 6.45944 16.6064 6.45944 12.9999C6.45944 9.39341 9.39355 6.45937 13 6.45937C16.6064 6.45937 19.5405 9.39348 19.5405 13C19.5405 16.6065 16.6064 19.5406 13 19.5406Z" fill="white"/>
</svg>
