<svg width="50" height="50" viewBox="0 0 50 50" fill="none" xmlns="http://www.w3.org/2000/svg">
<g filter="url(#filter0_d)">
<path d="M25 0C12.8516 0 3 9.85159 3 22C3 34.1484 12.8516 44 25 44C37.1484 44 47 34.1484 47 22C47 9.85159 37.1484 0 25 0ZM35.045 17.1533C35.0547 17.3698 35.0594 17.5873 35.0594 17.8058C35.0594 24.4784 29.9803 32.1729 20.692 32.1732H20.6924H20.692C17.8403 32.1732 15.1867 31.3373 12.952 29.9049C13.3471 29.9516 13.7492 29.9747 14.1564 29.9747C16.5224 29.9747 18.6997 29.1677 20.4282 27.8132C18.2177 27.7722 16.3539 26.3123 15.7107 24.3059C16.0185 24.365 16.3351 24.3972 16.6597 24.3972C17.1206 24.3972 17.5671 24.3351 17.9914 24.2193C15.6808 23.7567 13.9402 21.7147 13.9402 19.2695C13.9402 19.2466 13.9402 19.2262 13.9409 19.205C14.6214 19.5833 15.3995 19.8109 16.228 19.8365C14.8721 18.9318 13.9809 17.3852 13.9809 15.6332C13.9809 14.7081 14.231 13.8413 14.6647 13.0951C17.1548 16.1505 20.8763 18.16 25.0732 18.3712C24.9866 18.0012 24.9419 17.6158 24.9419 17.2197C24.9419 14.4321 27.2035 12.1706 29.9921 12.1706C31.4446 12.1706 32.7565 12.7845 33.678 13.7661C34.8284 13.5392 35.9087 13.1189 36.8846 12.5405C36.5069 13.7191 35.7066 14.7081 34.6639 15.3335C35.6855 15.2113 36.659 14.9404 37.5637 14.5382C36.8879 15.551 36.0309 16.4406 35.045 17.1533Z" fill="white"/>
</g>
<defs>
<filter id="filter0_d" x="0" y="0" width="50" height="50" filterUnits="userSpaceOnUse" color-interpolation-filters="sRGB">
<feFlood flood-opacity="0" result="BackgroundImageFix"/>
<feColorMatrix in="SourceAlpha" type="matrix" values="0 0 0 0 0 0 0 0 0 0 0 0 0 0 0 0 0 0 127 0"/>
<feOffset dy="3"/>
<feGaussianBlur stdDeviation="1.5"/>
<feColorMatrix type="matrix" values="0 0 0 0 0 0 0 0 0 0 0 0 0 0 0 0 0 0 0.25 0"/>
<feBlend mode="normal" in2="BackgroundImageFix" result="effect1_dropShadow"/>
<feBlend mode="normal" in="SourceGraphic" in2="effect1_dropShadow" result="shape"/>
</filter>
</defs>
</svg>
