<svg width="327" height="273" viewBox="0 0 327 273" fill="none" xmlns="http://www.w3.org/2000/svg">
<path d="M301.612 176.696C299.929 150.247 268.604 125.911 242.141 95.7849C242.61 107.114 241.835 116.28 241.309 117.209C239.208 120.968 200.359 125.151 189.601 115.372C187.918 113.842 186.388 95.8563 190.356 78.962C187.459 80.0179 184.235 80.88 181.373 80.9208C181.307 83.7161 184.944 124.503 187.204 134.751C185.755 137.337 170.952 139.821 160.914 139.821C150.875 139.821 136.067 137.337 134.618 134.751C136.898 124.503 140.52 83.7161 140.449 80.9208C132.93 80.829 122.932 75.0343 122.932 75.0343C122.932 75.0343 127.105 63.3481 130.135 55.508C129.259 54.9546 128.537 54.1899 128.034 53.2843C127.531 52.3787 127.264 51.3612 127.258 50.3254C127.293 48.6379 127.995 47.033 129.211 45.8626C130.428 44.6922 132.058 44.0518 133.746 44.0819C134.709 44.078 135.661 44.2852 136.535 44.6888C137.41 45.0924 138.185 45.6827 138.806 46.4181C143.581 44.9644 149.748 43.2811 150.977 42.118C153.252 44.291 158.016 45.7448 160.914 45.7448C163.811 45.7448 168.565 44.291 170.85 42.118C172.085 43.2913 178.364 44.995 183.159 46.4589C184.381 45.3555 185.97 44.7464 187.617 44.7501C188.455 44.7332 189.288 44.8818 190.068 45.1874C190.849 45.493 191.561 45.9496 192.165 46.531C192.769 47.1124 193.252 47.8072 193.586 48.5757C193.921 49.3441 194.101 50.171 194.116 51.009C194.114 52.1507 193.789 53.2686 193.177 54.2327C193.488 54.7428 193.957 55.5233 194.539 56.5588C195.705 55.8469 196.917 55.2113 198.166 54.6561C197.93 54.1279 197.796 53.5606 197.768 52.983C197.768 49.9225 199.66 43.4035 201.017 38.4505C188.652 20.3014 176.65 5.61072 161.699 1.35655C134.348 -6.45807 97.3204 20.5768 72.5248 54.5286C60.5376 70.9434 51.4427 88.9803 46.3826 106.885C50.045 105.783 53.5239 104.666 54.4114 103.824C56.6915 105.997 61.4507 107.446 64.348 107.446C67.2454 107.446 71.9994 105.997 74.2846 103.824C76.2536 105.686 90.9545 108.894 92.194 110.343C93.4335 111.792 102.34 136.74 102.34 136.74C102.34 136.74 92.3266 142.54 84.8129 142.647C84.7415 145.442 88.3836 186.224 90.6433 196.472C89.5211 198.477 80.3802 200.42 71.6526 201.196C86.0117 214.565 104.298 225.603 123.391 234.479C145.708 244.844 169.172 252.271 192.514 253.516V251.006H201.568V253.684C212.312 253.544 222.979 251.863 233.245 248.69C269.456 237.427 303.535 205.781 301.612 176.696Z" fill="#D3A3F4"/>
<path d="M259.469 102.875L234.449 123.442C234.306 123.561 234.204 123.72 234.155 123.899C234.107 124.078 234.114 124.268 234.177 124.442C234.24 124.617 234.356 124.767 234.507 124.874C234.659 124.981 234.84 125.038 235.025 125.039H285.055C285.242 125.043 285.426 124.988 285.581 124.883C285.736 124.778 285.855 124.627 285.92 124.452C285.986 124.277 285.995 124.085 285.947 123.904C285.899 123.723 285.796 123.562 285.652 123.442L260.657 102.901C260.495 102.754 260.286 102.671 260.068 102.666C259.85 102.662 259.637 102.736 259.469 102.875V102.875Z" stroke="#E0E0E0" stroke-width="2" stroke-linecap="round" stroke-linejoin="round"/>
<path d="M252.21 94.9129C252.191 94.3868 252.278 93.8624 252.466 93.3708C252.655 92.8793 252.94 92.4307 253.305 92.0518C253.671 91.673 254.109 91.3717 254.593 91.1659C255.078 90.9601 255.599 90.854 256.125 90.854C256.651 90.854 257.172 90.9601 257.657 91.1659C258.141 91.3717 258.579 91.673 258.945 92.0518C259.31 92.4307 259.595 92.8793 259.784 93.3708C259.972 93.8624 260.059 94.3868 260.04 94.9129" stroke="#E0E0E0" stroke-width="2" stroke-linecap="round" stroke-linejoin="round"/>
<path d="M260.04 102.671V94.9126" stroke="#E0E0E0" stroke-width="2" stroke-linecap="round" stroke-linejoin="round"/>
<path d="M177.92 86.756C179.002 87.8527 189.928 94.2391 191.984 94.7798C194.039 95.3205 202.507 77.6866 202.507 77.6866L188.52 69.3721C185.164 70.9023 176.405 78.7884 177.92 86.756Z" fill="#F2BE8F"/>
<path d="M130.201 102.875L105.207 123.416C105.061 123.533 104.956 123.693 104.906 123.872C104.855 124.052 104.862 124.242 104.925 124.418C104.988 124.593 105.103 124.745 105.256 124.852C105.409 124.958 105.591 125.015 105.778 125.013H155.808C155.993 125.012 156.173 124.954 156.324 124.847C156.475 124.739 156.589 124.589 156.651 124.414C156.714 124.24 156.721 124.051 156.672 123.873C156.624 123.694 156.521 123.535 156.379 123.416L131.384 102.875C131.22 102.734 131.01 102.656 130.793 102.656C130.576 102.656 130.366 102.734 130.201 102.875Z" stroke="#E0E0E0" stroke-width="2" stroke-linecap="round" stroke-linejoin="round"/>
<path d="M122.932 94.9129C122.913 94.3868 123 93.8624 123.189 93.3708C123.377 92.8793 123.662 92.4307 124.028 92.0518C124.393 91.673 124.831 91.3717 125.315 91.1659C125.8 90.9601 126.321 90.854 126.847 90.854C127.374 90.854 127.895 90.9601 128.379 91.1659C128.863 91.3717 129.301 91.673 129.667 92.0518C130.032 92.4307 130.318 92.8793 130.506 93.3708C130.694 93.8624 130.781 94.3868 130.762 94.9129" stroke="#E0E0E0" stroke-width="2" stroke-linecap="round" stroke-linejoin="round"/>
<path d="M130.772 102.671V94.9126" stroke="#E0E0E0" stroke-width="2" stroke-linecap="round" stroke-linejoin="round"/>
<path d="M23.2651 257.439V92.9541H303.826V257.439" stroke="#E0E0E0" stroke-width="3" stroke-linecap="round" stroke-linejoin="round"/>
<path d="M217.866 2.04004C226.338 2.04004 233.194 11.1095 233.194 21.3725C233.194 23.8006 232.526 29.1566 232.898 32.5283C233.622 39.1289 242.401 49.0961 242.401 56.5689C242.401 70.3006 223.91 71.28 217.866 71.28C211.821 71.28 197.916 57.5432 197.916 52.7738C197.916 48.0045 202.507 34.89 202.507 32.2936C202.507 29.6973 208.965 2.04004 217.866 2.04004Z" fill="black"/>
<path d="M191.045 116.913V251.302H202.777L217.809 186.693C217.809 186.693 219.37 109.669 191.045 116.913Z" fill="#5FC5D1"/>
<path d="M210.668 54.9979C216.279 60.6089 205.914 82.6959 202.124 83.1142C199.574 83.3998 184.24 71.1984 184.22 67.8114C184.194 62.384 203.19 47.5658 210.668 54.9979Z" fill="#6F1CA8"/>
<path d="M239.662 118.285V251.302H226.711L201.083 119.601C201.083 116.969 237.193 115.791 239.662 118.285Z" fill="#6BD5E1"/>
<path d="M219.569 48.9229C246.278 48.9229 242.881 114.75 241.422 117.367C239.32 121.121 200.472 125.304 189.714 115.526C186.48 112.593 183.807 48.9229 219.569 48.9229Z" fill="#741DAF"/>
<path d="M160.848 139.633C170.891 139.633 185.694 137.148 187.143 134.562C184.863 124.309 181.241 83.5275 181.313 80.7322C188.831 80.6302 198.839 74.8304 198.839 74.8304C198.839 74.8304 189.938 49.8869 188.694 48.4587C187.449 47.0304 172.753 43.7964 170.784 41.9346C168.509 44.1076 163.745 45.5562 160.848 45.5562C157.95 45.5562 153.196 44.1076 150.911 41.9346C148.947 43.776 134.246 46.9845 133.002 48.4587C131.757 49.9328 122.861 74.8508 122.861 74.8508C122.861 74.8508 132.864 80.6506 140.388 80.7526C140.454 83.5479 136.817 124.33 134.558 134.583C136.006 137.148 150.809 139.633 160.848 139.633Z" fill="white"/>
<path d="M99.361 102.875L74.3664 123.417C74.2213 123.534 74.1163 123.693 74.0658 123.872C74.0153 124.052 74.0219 124.243 74.0847 124.418C74.1475 124.594 74.2634 124.745 74.4162 124.852C74.5691 124.958 74.7514 125.015 74.9378 125.013H124.973C125.158 125.012 125.338 124.954 125.489 124.847C125.64 124.74 125.754 124.589 125.816 124.415C125.879 124.24 125.886 124.051 125.837 123.873C125.789 123.694 125.686 123.535 125.544 123.417L100.549 102.875C100.384 102.732 100.174 102.654 99.9552 102.654C99.737 102.654 99.526 102.732 99.361 102.875Z" stroke="#E0E0E0" stroke-width="2" stroke-linecap="round" stroke-linejoin="round"/>
<path d="M92.1024 94.9129C92.0834 94.3868 92.1706 93.8624 92.3588 93.3708C92.547 92.8793 92.8323 92.4307 93.1977 92.0518C93.5631 91.673 94.0012 91.3717 94.4856 91.1659C94.9701 90.9601 95.491 90.854 96.0174 90.854C96.5437 90.854 97.0647 90.9601 97.5491 91.1659C98.0336 91.3717 98.4716 91.673 98.837 92.0518C99.2024 92.4307 99.4877 92.8793 99.6759 93.3708C99.8641 93.8624 99.9513 94.3868 99.9323 94.9129" stroke="#E0E0E0" stroke-width="2" stroke-linecap="round" stroke-linejoin="round"/>
<path d="M99.9321 102.671V94.9126" stroke="#E0E0E0" stroke-width="2" stroke-linecap="round" stroke-linejoin="round"/>
<path d="M63.9195 102.875L38.9045 123.442C38.7594 123.559 38.6544 123.718 38.6039 123.898C38.5534 124.077 38.56 124.268 38.6228 124.443C38.6856 124.619 38.8015 124.77 38.9543 124.877C39.1072 124.984 39.2895 125.04 39.4758 125.038H89.5057C89.6907 125.037 89.8709 124.979 90.0217 124.872C90.1726 124.765 90.287 124.614 90.3493 124.44C90.4116 124.266 90.4189 124.076 90.3702 123.898C90.3215 123.719 90.2192 123.56 90.077 123.442L65.0825 102.9C64.9223 102.761 64.7181 102.682 64.5056 102.677C64.2931 102.672 64.0857 102.742 63.9195 102.875Z" stroke="#E0E0E0" stroke-width="2" stroke-linecap="round" stroke-linejoin="round"/>
<path d="M56.661 94.9129C56.642 94.3868 56.7292 93.8624 56.9174 93.3708C57.1056 92.8793 57.3909 92.4307 57.7563 92.0518C58.1217 91.673 58.5598 91.3717 59.0442 91.1659C59.5287 90.9601 60.0496 90.854 60.576 90.854C61.1023 90.854 61.6233 90.9601 62.1077 91.1659C62.5922 91.3717 63.0302 91.673 63.3956 92.0518C63.761 92.4307 64.0463 92.8793 64.2345 93.3708C64.4227 93.8624 64.5099 94.3868 64.4909 94.9129" stroke="#E0E0E0" stroke-width="2" stroke-linecap="round" stroke-linejoin="round"/>
<path d="M64.491 102.671V94.9126" stroke="#E0E0E0" stroke-width="2" stroke-linecap="round" stroke-linejoin="round"/>
<path d="M201.721 268.003H173.921V265.325L191.621 257.438H201.721V268.003Z" fill="black"/>
<path d="M222.921 268.002H242.865L238.907 258.902H226.486L222.921 268.002Z" fill="black"/>
<path d="M201.415 251.302H191.856V257.438H201.415V251.302Z" fill="#F8CBA2"/>
<path d="M238.234 251.302H227.481V258.902H238.234V251.302Z" fill="#F8CBA2"/>
<path d="M226.634 32.7119C224.828 35.4613 223.38 50.0194 224.145 55.712C223.084 57.1912 213.79 57.4259 212.311 55.9517C213.076 53.4421 213.637 46.6221 213.168 42.1792C216.116 38.2566 226.634 32.7119 226.634 32.7119Z" fill="#F2BE8F"/>
<path d="M42.0063 263.692V257.438H4.33594V263.692" stroke="#E0E0E0" stroke-width="3" stroke-linecap="round" stroke-linejoin="round"/>
<path d="M322.659 263.692V257.438H284.989V263.692" stroke="#E0E0E0" stroke-width="3" stroke-linecap="round" stroke-linejoin="round"/>
<path d="M4.33579 272.644C6.73038 272.644 8.67157 270.703 8.67157 268.308C8.67157 265.914 6.73038 263.973 4.33579 263.973C1.9412 263.973 0 265.914 0 268.308C0 270.703 1.9412 272.644 4.33579 272.644Z" fill="#E0E0E0"/>
<path d="M42.0062 272.644C44.4008 272.644 46.342 270.703 46.342 268.308C46.342 265.914 44.4008 263.973 42.0062 263.973C39.6116 263.973 37.6704 265.914 37.6704 268.308C37.6704 270.703 39.6116 272.644 42.0062 272.644Z" fill="#E0E0E0"/>
<path d="M284.989 272.644C287.383 272.644 289.324 270.703 289.324 268.308C289.324 265.914 287.383 263.973 284.989 263.973C282.594 263.973 280.653 265.914 280.653 268.308C280.653 270.703 282.594 272.644 284.989 272.644Z" fill="#E0E0E0"/>
<path d="M322.664 272.644C325.059 272.644 327 270.703 327 268.308C327 265.914 325.059 263.973 322.664 263.973C320.27 263.973 318.328 265.914 318.328 268.308C318.328 270.703 320.27 272.644 322.664 272.644Z" fill="#E0E0E0"/>
<path d="M216.08 73.81C214.673 75.0597 209.679 81.7419 208.71 82.91C207.623 81.0584 193.978 54.6458 192.897 53.6817C191.815 52.7176 185.567 55.4517 185.327 57.2524C185.087 59.053 192.086 90.439 201.385 100.998C202.629 102.406 208.873 102.569 210.444 102.324C212.015 102.079 230.21 85.94 231.098 84.2873C231.985 82.6346 216.08 73.81 216.08 73.81Z" fill="#F8CBA2"/>
<path d="M215.188 44.7298C223.786 44.7298 230.756 36.0241 230.756 25.2851C230.756 14.546 223.786 5.84033 215.188 5.84033C206.59 5.84033 199.62 14.546 199.62 25.2851C199.62 36.0241 206.59 44.7298 215.188 44.7298Z" fill="#F8CBA2"/>
<path d="M199.217 22.0306C197.916 9.94137 208.929 2.04004 217.866 2.04004C211.561 8.91609 206.496 21.648 199.217 22.0306Z" fill="black"/>
<path d="M208.031 8.87545C207.062 10.4057 212.969 26.1625 224.553 26.1625C245.247 25.5045 218.677 -7.68726 208.031 8.87545Z" fill="black"/>
<path d="M227.501 31.0132C229.851 31.0132 231.755 29.1086 231.755 26.7591C231.755 24.4095 229.851 22.5049 227.501 22.5049C225.152 22.5049 223.247 24.4095 223.247 26.7591C223.247 29.1086 225.152 31.0132 227.501 31.0132Z" fill="#F8CBA2"/>
<path d="M187.704 57.2117C191.293 57.2117 194.203 54.4163 194.203 50.9681C194.203 47.5199 191.293 44.7246 187.704 44.7246C184.115 44.7246 181.205 47.5199 181.205 50.9681C181.205 54.4163 184.115 57.2117 187.704 57.2117Z" fill="#F8CBA2"/>
<path d="M240.947 58.6602C246.558 64.2712 236.193 86.3582 232.408 86.7765C229.858 87.0622 214.519 74.8608 214.504 71.4737C214.474 66.0208 233.464 51.2027 240.947 58.6602Z" fill="#7D15C3"/>
<path d="M133.889 56.5945C137.478 56.5945 140.388 53.7992 140.388 50.351C140.388 46.9027 137.478 44.1074 133.889 44.1074C130.3 44.1074 127.391 46.9027 127.391 50.351C127.391 53.7992 130.3 56.5945 133.889 56.5945Z" fill="#F8CBA2"/>
<path d="M64.4911 201.568C74.5297 201.568 89.3326 199.084 90.7813 196.498C88.5063 186.25 84.8846 145.463 84.9509 142.668C92.4748 142.566 102.478 136.771 102.478 136.771C102.478 136.771 93.5766 111.822 92.3269 110.374C91.0771 108.925 76.3814 105.717 74.4175 103.85C72.1374 106.023 67.3782 107.476 64.4809 107.476C61.5836 107.476 56.8295 106.023 54.5443 103.85C52.5753 105.717 37.8745 108.925 36.6349 110.374C35.3954 111.822 26.5249 136.771 26.5249 136.771C26.5249 136.771 36.5278 142.566 44.0517 142.668C44.1231 145.463 40.481 186.25 38.2213 196.498C39.6445 199.084 54.4474 201.568 64.4911 201.568Z" fill="white"/>
</svg>
