<svg width="50" height="50" viewBox="0 0 50 50" fill="none" xmlns="http://www.w3.org/2000/svg">
<g filter="url(#filter0_d)">
<path d="M25 44C37.144 44 47 34.144 47 22C47 9.856 37.144 0 25 0C12.856 0 3 9.856 3 22C3 34.144 12.856 44 25 44ZM32.8522 20.4288H36.0018V17.281H39.1515V20.4307H42.2737V23.5803H39.1515V26.73H36.0018V23.5803H32.8522V20.4288ZM26.0927 13.8637L23.1117 16.7567C19.2983 13.0295 11.8788 15.7447 11.8788 21.9908C11.8788 30.4627 23.9037 31.042 24.9468 24.1908H18.7282V20.4123H29.0993C30.2763 26.565 26.3035 33 18.7282 33V33.0018C12.625 33.0018 7.72633 28.0775 7.72633 22C7.72817 12.2137 19.3368 7.58817 26.0927 13.8637Z" fill="white"/>
</g>
<defs>
<filter id="filter0_d" x="0" y="0" width="50" height="50" filterUnits="userSpaceOnUse" color-interpolation-filters="sRGB">
<feFlood flood-opacity="0" result="BackgroundImageFix"/>
<feColorMatrix in="SourceAlpha" type="matrix" values="0 0 0 0 0 0 0 0 0 0 0 0 0 0 0 0 0 0 127 0"/>
<feOffset dy="3"/>
<feGaussianBlur stdDeviation="1.5"/>
<feColorMatrix type="matrix" values="0 0 0 0 0 0 0 0 0 0 0 0 0 0 0 0 0 0 0.25 0"/>
<feBlend mode="normal" in2="BackgroundImageFix" result="effect1_dropShadow"/>
<feBlend mode="normal" in="SourceGraphic" in2="effect1_dropShadow" result="shape"/>
</filter>
</defs>
</svg>
