<svg width="26" height="26" viewBox="0 0 26 26" fill="none" xmlns="http://www.w3.org/2000/svg">
<path d="M13 0C5.81491 0 0 5.8143 0 13C0 20.1851 5.8143 26 13 26C20.185 26 26 20.1857 26 13C26 5.81496 20.1857 0 13 0ZM13 24.2667C6.78757 24.2667 1.73332 19.2125 1.73332 13C1.73332 6.78752 6.78757 1.73332 13 1.73332C19.2124 1.73332 24.2667 6.78757 24.2667 13C24.2667 19.2124 19.2124 24.2667 13 24.2667Z" fill="white"/>
<path d="M18.4433 13.0339H14.4458V6.2229C14.4458 5.54757 13.8983 5 13.2229 5C12.5475 5 12 5.5475 12 6.2229V14.2568C12 14.9321 12.5475 15.4797 13.2229 15.4797H18.4433C19.1186 15.4797 19.6662 14.9322 19.6662 14.2568C19.6662 13.5814 19.1187 13.0339 18.4433 13.0339Z" fill="white"/>
</svg>
