<svg width="294" height="294" viewBox="0 0 294 294" fill="none" xmlns="http://www.w3.org/2000/svg">
<path d="M45.0773 139.28C30.2042 74.7282 77.5276 -9.81363 171.048 7.6778C264.568 25.1692 199.502 100.26 249.469 114.709C315.722 133.866 236.281 219.64 155.949 224.238C83.9149 228.362 55.5452 184.712 45.0773 139.28Z" fill="#FAFAFA"/>
<path d="M131.516 243.383H125.269V247.671H131.516V243.383Z" fill="#DE8E68"/>
<path d="M172.308 243.383H165.007V247.671H172.308V243.383Z" fill="#DE8E68"/>
<path d="M164.738 146.387C164.91 149.621 172.529 243.383 172.529 243.383H164.738L144.477 172.97C144.477 172.97 149.744 144.795 150.112 144.868C151.851 145.309 161.382 147 164.738 146.387Z" fill="#56CAD8"/>
<path d="M153.37 145.579L132.373 244.143H124.852C124.852 244.143 124.19 136.122 124.852 136.122C131.908 139.111 145.236 144.011 153.37 145.579Z" fill="#74D5DE"/>
<path d="M170.128 91.924C171.329 92.4385 177.748 97.755 180.443 101.258C182.452 99.764 205.384 80.7275 205.849 79.674C206.756 79.1595 208.691 82.075 205.849 84.4515C207.785 84.378 219.226 84.084 219.226 84.4515C219.226 84.819 221.701 85.8725 204.894 88.5675C202.664 91.2625 182.476 115.003 179.193 115.003C175.91 115.003 162.533 102.018 161.97 99.6905C161.406 97.363 170.128 91.924 170.128 91.924Z" fill="#F8CBA2"/>
<path d="M152.66 81.3645C147.417 86.24 157.021 100.94 159.74 101.577C163.195 102.41 171.084 95.8685 172.774 91.336C173.534 89.2045 156.972 77.371 152.66 81.3645Z" fill="#6F1CA8"/>
<path d="M143.252 74.2595C114.097 74.2595 120.712 130.536 122.574 134.382C124.436 138.229 161.774 149.401 164.714 146.387C167.654 143.374 173.068 74.2595 143.252 74.2595Z" fill="#741DAF"/>
<path d="M148.274 66.689H139.454V79.5025C139.454 81.144 148.274 81.144 148.274 79.5025V66.689Z" fill="#F2BE8F"/>
<path d="M143.766 71.295C149.314 71.295 153.811 63.7483 153.811 54.439C153.811 45.1297 149.314 37.583 143.766 37.583C138.218 37.583 133.721 45.1297 133.721 54.439C133.721 63.7483 138.218 71.295 143.766 71.295Z" fill="#F8CBA2"/>
<path d="M142.1 33.81C137.028 33.81 130.315 36.26 125.44 36.26C121.03 36.26 113.018 33.075 108.78 33.075C106.085 33.075 93.345 34.3245 93.345 44.59C93.345 49.2205 98.245 53.655 99.225 54.88C100.205 56.105 101.993 62.965 106.575 62.965C112.969 62.965 117.379 58.31 123.235 58.31C127.277 58.31 128.331 59.29 130.34 59.29C131.81 59.29 134.015 58.604 134.015 58.555C134.015 57.7955 133.868 51.45 134.75 50.421C135.975 48.951 151.581 51.1315 151.581 45.962C152.684 46.942 153.713 51.107 153.713 51.9645C154.423 51.2295 157.069 48.0445 157.069 44.6145C157.045 41.4785 154.84 33.81 142.1 33.81Z" fill="black"/>
<path d="M130.652 125.064L107.002 126.834L109.348 158.179L132.998 156.409L130.652 125.064Z" fill="#DFDFDF"/>
<path d="M133.126 127.341L109.477 129.111L111.823 160.457L135.472 158.687L133.126 127.341Z" fill="#F2F2F2"/>
<path d="M121.079 160.475C123.663 160.475 125.758 157.524 125.758 153.885C125.758 150.245 123.663 147.294 121.079 147.294C118.495 147.294 116.399 150.245 116.399 153.885C116.399 157.524 118.495 160.475 121.079 160.475Z" fill="#F8CBA2"/>
<path d="M118.115 98.6125C117.502 99.9845 113.46 115.297 114.317 128.38C115.175 141.463 117.404 148.837 117.404 149.866C117.404 150.895 124.901 150.479 124.901 149.866C124.901 149.254 122.966 130.634 123.382 127.326C123.799 124.019 129.409 104.884 129.262 102.532C129.115 100.18 118.115 98.6125 118.115 98.6125Z" fill="#F8CBA2"/>
<path d="M129.115 82.2955C122.426 80.164 114.513 95.4275 115.272 98.0735C116.228 101.405 125.562 105.031 130.242 104.296C132.447 103.929 134.603 84.0595 129.115 82.2955Z" fill="#7D15C3"/>
<path d="M124.95 246.691V248.577L117.502 262.542H122.353L132.055 253.747V246.691H124.95Z" fill="black"/>
<path d="M164.762 246.397V253.477H185.465V250.684L172.333 246.397H164.762Z" fill="black"/>
<path d="M85.0789 106.012C94.3206 106.012 101.812 98.5206 101.812 89.279C101.812 80.0373 94.3206 72.5455 85.0789 72.5455C75.8373 72.5455 68.3455 80.0373 68.3455 89.279C68.3455 98.5206 75.8373 106.012 85.0789 106.012Z" fill="#29B2FF"/>
<path d="M109.05 77.2975L88.9351 81.34L93.8596 91.1155L109.05 77.2975Z" fill="#29B2FF"/>
<path d="M175.249 51.8175L195.045 57.281V46.3295L175.249 51.8175Z" fill="#29B2FF"/>
<path d="M83.9285 93.283C83.9444 92.3364 84.0518 91.5886 84.2507 91.0398C84.4495 90.4909 84.8552 89.8824 85.4677 89.2142L87.0308 87.6034C87.6989 86.8477 88.033 86.0364 88.033 85.1693C88.033 84.3341 87.8143 83.6818 87.3768 83.2125C86.9393 82.7352 86.3029 82.4966 85.4677 82.4966C84.6563 82.4966 84.0041 82.7114 83.5109 83.1409C83.0177 83.5705 82.7711 84.1472 82.7711 84.871H80.5637C80.5796 83.5824 81.037 82.5443 81.9359 81.7568C82.8427 80.9614 84.02 80.5637 85.4677 80.5637C86.9711 80.5637 88.1404 80.9693 88.9757 81.7807C89.8188 82.5841 90.2404 83.6898 90.2404 85.0977C90.2404 86.4898 89.5961 87.8619 88.3075 89.2142L87.0069 90.5028C86.4262 91.1472 86.1359 92.0739 86.1359 93.283H83.9285ZM83.833 97.0653C83.833 96.7074 83.9404 96.4091 84.1552 96.1704C84.3779 95.9239 84.7041 95.8006 85.1336 95.8006C85.5632 95.8006 85.8893 95.9239 86.112 96.1704C86.3347 96.4091 86.4461 96.7074 86.4461 97.0653C86.4461 97.4233 86.3347 97.7216 86.112 97.9602C85.8893 98.1909 85.5632 98.3062 85.1336 98.3062C84.7041 98.3062 84.3779 98.1909 84.1552 97.9602C83.9404 97.7216 83.833 97.4233 83.833 97.0653Z" fill="white"/>
<path d="M221.014 37.583H182.794V64.19H221.014V37.583Z" fill="#29B2FF"/>
<path d="M193.256 52.724C194.271 52.724 195.093 51.9013 195.093 50.8865C195.093 49.8717 194.271 49.049 193.256 49.049C192.241 49.049 191.418 49.8717 191.418 50.8865C191.418 51.9013 192.241 52.724 193.256 52.724Z" fill="white"/>
<path d="M201.88 52.724C202.895 52.724 203.717 51.9013 203.717 50.8865C203.717 49.8717 202.895 49.049 201.88 49.049C200.865 49.049 200.042 49.8717 200.042 50.8865C200.042 51.9013 200.865 52.724 201.88 52.724Z" fill="white"/>
<path d="M210.528 52.724C211.543 52.724 212.366 51.9013 212.366 50.8865C212.366 49.8717 211.543 49.049 210.528 49.049C209.514 49.049 208.691 49.8717 208.691 50.8865C208.691 51.9013 209.514 52.724 210.528 52.724Z" fill="white"/>
<path d="M129.139 129.728C129.213 130.561 128.576 131.271 127.743 131.345C126.91 131.418 126.199 130.781 126.126 129.948L125.758 124.974C125.685 124.141 126.322 123.431 127.155 123.357C127.988 123.284 128.698 123.921 128.772 124.754L128.968 127.4" stroke="black" stroke-width="2.5" stroke-miterlimit="10" stroke-linecap="round" stroke-linejoin="round"/>
</svg>
